# Blender 4.3.2
# www.blender.org
mtllib untitled.mtl
o Plane
v -0.503420 0.000000 1.000000
v 0.503420 0.000000 1.000000
v -0.641496 0.000000 -1.000000
v 0.641496 0.000000 -1.000000
v 1.000000 0.000000 1.000000
v -1.000000 0.000000 1.000000
v 0.000000 0.000000 2.000000
v -0.641496 0.047423 -1.000000
v -0.503420 0.047423 1.000000
v 0.503420 0.047423 1.000000
v 0.641496 0.047423 -1.000000
v 1.000000 0.047423 1.000000
v -1.000000 0.047423 1.000000
v 0.000000 0.047423 2.000000
vn -0.0000 -1.0000 -0.0000
vn -0.0000 1.0000 -0.0000
vn -0.0000 -0.0000 -1.0000
vn -0.7071 -0.0000 0.7071
vn 0.7071 -0.0000 0.7071
vn 0.9976 -0.0000 0.0689
vn -0.9976 -0.0000 0.0689
vt 0.000000 0.000000
vt 0.000000 1.000000
vt 1.000000 1.000000
vt 1.000000 0.000000
s 0
f 1/1/1 3/2/1 4/3/1 2/4/1
f 6/1/1 1/1/1 2/4/1 5/1/1 7/1/1
f 9/1/2 10/4/2 11/3/2 8/2/2
f 13/1/2 14/1/2 12/1/2 10/4/2 9/1/2
f 4/3/3 3/2/3 8/2/3 11/3/3
f 6/1/4 7/1/4 14/1/4 13/1/4
f 7/1/5 5/1/5 12/1/5 14/1/5
f 5/1/3 2/4/3 10/4/3 12/1/3
f 2/4/6 4/3/6 11/3/6 10/4/6
f 3/2/7 1/1/7 9/1/7 8/2/7
f 1/1/3 6/1/3 13/1/3 9/1/3
